ModelForces
version=1
nRows=4
nColumns=143
inDegrees=no

This file contains the forces exerted on a model during a simulation.

A force is a generalized force, meaning that it can be either a force (N) or a torque (Nm).

Units are S.I. units (second, meters, Newtons, ...)
Angles are in degrees.

endheader
time	semimem_r	semiten_r	bifemlh_r	bifemsh_r	sar_r	grac_r	rect_fem_r	vas_med_r	vas_int_r	vas_lat_r	med_gas_r	lat_gas_r	femur_lat_meniscii_l.femur_lat_l.force.X	femur_lat_meniscii_l.femur_lat_l.force.Y	femur_lat_meniscii_l.femur_lat_l.force.Z	femur_lat_meniscii_l.femur_lat_l.torque.X	femur_lat_meniscii_l.femur_lat_l.torque.Y	femur_lat_meniscii_l.femur_lat_l.torque.Z	femur_lat_meniscii_l.meniscus_lat_l.force.X	femur_lat_meniscii_l.meniscus_lat_l.force.Y	femur_lat_meniscii_l.meniscus_lat_l.force.Z	femur_lat_meniscii_l.meniscus_lat_l.torque.X	femur_lat_meniscii_l.meniscus_lat_l.torque.Y	femur_lat_meniscii_l.meniscus_lat_l.torque.Z	femur_med_meniscii_l.femur_med_l.force.X	femur_med_meniscii_l.femur_med_l.force.Y	femur_med_meniscii_l.femur_med_l.force.Z	femur_med_meniscii_l.femur_med_l.torque.X	femur_med_meniscii_l.femur_med_l.torque.Y	femur_med_meniscii_l.femur_med_l.torque.Z	femur_med_meniscii_l.meniscus_med_l.force.X	femur_med_meniscii_l.meniscus_med_l.force.Y	femur_med_meniscii_l.meniscus_med_l.force.Z	femur_med_meniscii_l.meniscus_med_l.torque.X	femur_med_meniscii_l.meniscus_med_l.torque.Y	femur_med_meniscii_l.meniscus_med_l.torque.Z	femur_lat_meniscii_r.femur_lat_r.force.X	femur_lat_meniscii_r.femur_lat_r.force.Y	femur_lat_meniscii_r.femur_lat_r.force.Z	femur_lat_meniscii_r.femur_lat_r.torque.X	femur_lat_meniscii_r.femur_lat_r.torque.Y	femur_lat_meniscii_r.femur_lat_r.torque.Z	femur_lat_meniscii_r.meniscus_lat_r.force.X	femur_lat_meniscii_r.meniscus_lat_r.force.Y	femur_lat_meniscii_r.meniscus_lat_r.force.Z	femur_lat_meniscii_r.meniscus_lat_r.torque.X	femur_lat_meniscii_r.meniscus_lat_r.torque.Y	femur_lat_meniscii_r.meniscus_lat_r.torque.Z	femur_med_meniscii_r.femur_med_r.force.X	femur_med_meniscii_r.femur_med_r.force.Y	femur_med_meniscii_r.femur_med_r.force.Z	femur_med_meniscii_r.femur_med_r.torque.X	femur_med_meniscii_r.femur_med_r.torque.Y	femur_med_meniscii_r.femur_med_r.torque.Z	femur_med_meniscii_r.meniscus_med_r.force.X	femur_med_meniscii_r.meniscus_med_r.force.Y	femur_med_meniscii_r.meniscus_med_r.force.Z	femur_med_meniscii_r.meniscus_med_r.torque.X	femur_med_meniscii_r.meniscus_med_r.torque.Y	femur_med_meniscii_r.meniscus_med_r.torque.Z	femur_med_tibia_l.tibia_upper_l.force.X	femur_med_tibia_l.tibia_upper_l.force.Y	femur_med_tibia_l.tibia_upper_l.force.Z	femur_med_tibia_l.tibia_upper_l.torque.X	femur_med_tibia_l.tibia_upper_l.torque.Y	femur_med_tibia_l.tibia_upper_l.torque.Z	femur_med_tibia_l.femur_med_l.force.X	femur_med_tibia_l.femur_med_l.force.Y	femur_med_tibia_l.femur_med_l.force.Z	femur_med_tibia_l.femur_med_l.torque.X	femur_med_tibia_l.femur_med_l.torque.Y	femur_med_tibia_l.femur_med_l.torque.Z	femur_lat_tibia_l.tibia_upper_l.force.X	femur_lat_tibia_l.tibia_upper_l.force.Y	femur_lat_tibia_l.tibia_upper_l.force.Z	femur_lat_tibia_l.tibia_upper_l.torque.X	femur_lat_tibia_l.tibia_upper_l.torque.Y	femur_lat_tibia_l.tibia_upper_l.torque.Z	femur_lat_tibia_l.femur_lat_l.force.X	femur_lat_tibia_l.femur_lat_l.force.Y	femur_lat_tibia_l.femur_lat_l.force.Z	femur_lat_tibia_l.femur_lat_l.torque.X	femur_lat_tibia_l.femur_lat_l.torque.Y	femur_lat_tibia_l.femur_lat_l.torque.Z	femur_med_tibia_r.tibia_upper_r.force.X	femur_med_tibia_r.tibia_upper_r.force.Y	femur_med_tibia_r.tibia_upper_r.force.Z	femur_med_tibia_r.tibia_upper_r.torque.X	femur_med_tibia_r.tibia_upper_r.torque.Y	femur_med_tibia_r.tibia_upper_r.torque.Z	femur_med_tibia_r.femur_med_r.force.X	femur_med_tibia_r.femur_med_r.force.Y	femur_med_tibia_r.femur_med_r.force.Z	femur_med_tibia_r.femur_med_r.torque.X	femur_med_tibia_r.femur_med_r.torque.Y	femur_med_tibia_r.femur_med_r.torque.Z	femur_lat_tibia_r.tibia_upper_r.force.X	femur_lat_tibia_r.tibia_upper_r.force.Y	femur_lat_tibia_r.tibia_upper_r.force.Z	femur_lat_tibia_r.tibia_upper_r.torque.X	femur_lat_tibia_r.tibia_upper_r.torque.Y	femur_lat_tibia_r.tibia_upper_r.torque.Z	femur_lat_tibia_r.femur_lat_r.force.X	femur_lat_tibia_r.femur_lat_r.force.Y	femur_lat_tibia_r.femur_lat_r.force.Z	femur_lat_tibia_r.femur_lat_r.torque.X	femur_lat_tibia_r.femur_lat_r.torque.Y	femur_lat_tibia_r.femur_lat_r.torque.Z	aACL_R	pACL_R	aPCL_R	pPCL_R	aMCL_R	aLCL_R	aPCL_L	pPCL_L	aMCL_L	aLCL_L	ground_prescribedForce_fx	ground_prescribedForce_fy	ground_prescribedForce_fz	ground_prescribedForce_px	ground_prescribedForce_py	ground_prescribedForce_pz	ground_prescribedForce_fx	ground_prescribedForce_fy	ground_prescribedForce_fz	ground_prescribedForce_px	ground_prescribedForce_py	ground_prescribedForce_pz	ground_prescribedForce_fx	ground_prescribedForce_fy	ground_prescribedForce_fz	ground_prescribedForce_px	ground_prescribedForce_py	ground_prescribedForce_pz	ground_prescribedForce_fx	ground_prescribedForce_fy	ground_prescribedForce_fz	ground_prescribedForce_px	ground_prescribedForce_py	ground_prescribedForce_pz
      0.61946030	      6.06300848	      4.09675728	      6.30885164	      7.06962399	      0.00000000	      1.54500905	     11.26343601	      8.33600455	      8.47662764	     10.44000866	      0.00000000	      0.00000000	      2.76307434	     50.99597937	     -9.56042239	      5.21997485	     -0.02578839	      1.48581788	     -2.76307434	    -50.99597937	      9.56042239	     -1.74637766	      0.02558040	     -0.48301696	     -3.31599387	     20.97615968	     -3.40468921	      0.94473225	     -0.02138609	     -1.00501789	      3.31599387	    -20.97615968	      3.40468921	      0.28075727	      0.00368718	     -0.29758878	      0.54384847	     73.81152172	    -12.96585572	      3.38722538	      0.08358957	      0.63695684	     -0.54384847	    -73.81152172	     12.96585572	      1.88314867	     -0.04530621	     -0.19795479	     -4.67495566	     93.12560686	      1.67116735	      1.18919811	      0.07377925	     -0.61874285	      4.67495566	    -93.12560686	     -1.67116735	     -1.42667055	     -0.05889129	     -0.87519674	      0.00000000	      0.00000000	      0.00000000	      0.00000000	      0.00000000	      0.00000000	      0.00000000	      0.00000000	      0.00000000	      0.00000000	      0.00000000	      0.00000000	      0.00000000	      0.00000000	      0.00000000	      0.00000000	      0.00000000	      0.00000000	      0.00000000	      0.00000000	      0.00000000	      0.00000000	      0.00000000	      0.00000000	      0.00000000	      0.00000000	      0.00000000	      0.00000000	      0.00000000	      0.00000000	      0.00000000	      0.00000000	      0.00000000	      0.00000000	      0.00000000	      0.00000000	      0.00000000	      0.00000000	      0.00000000	      0.00000000	      0.00000000	      0.00000000	      0.00000000	      0.00000000	      0.00000000	      0.00000000	      0.00000000	      0.00000000	      0.00000000	      0.00000000	     63.35626150	     43.59949220	     23.69171737	      0.00000000	      0.00000000	      0.00000000	    116.99866359	      0.00000000	    -25.84154700	      9.40555000	      0.00000000	      0.00000000	     -0.05000000	     -0.50000000	    -25.84154700	      9.40555000	      0.00000000	      0.00000000	     -0.05000000	      0.50000000	    -25.84154700	      9.40555000	      0.00000000	      0.00000000	     -0.10000000	     -0.50000000	    -25.84154700	      9.40555000	      0.00000000	      0.00000000	     -0.10000000	      0.50000000
      0.62577253	      6.02957203	      4.07310280	      6.26375568	      6.93601499	      0.00000000	      1.52538422	     11.19778865	      8.16379852	      8.30585989	     10.23794301	      0.00000000	      0.00000000	      2.76307434	     50.99597937	     -9.56042239	      5.21997485	     -0.02578839	      1.48581788	     -2.76307434	    -50.99597937	      9.56042239	     -1.74637766	      0.02558040	     -0.48301696	     -3.31599387	     20.97615968	     -3.40468921	      0.94473225	     -0.02138609	     -1.00501789	      3.31599387	    -20.97615968	      3.40468921	      0.28075727	      0.00368718	     -0.29758878	      0.55327924	     75.31455725	    -13.12143853	      3.41085569	      0.08424111	      0.64801271	     -0.55327924	    -75.31455725	     13.12143853	      1.92565963	     -0.04552127	     -0.20074843	     -4.56771289	     94.12566684	      1.82050866	      1.14817423	      0.06991228	     -0.55780698	      4.56771289	    -94.12566684	     -1.82050866	     -1.43803472	     -0.05593588	     -0.89208273	      0.00000000	      0.00000000	      0.00000000	      0.00000000	      0.00000000	      0.00000000	      0.00000000	      0.00000000	      0.00000000	      0.00000000	      0.00000000	      0.00000000	      0.00000000	      0.00000000	      0.00000000	      0.00000000	      0.00000000	      0.00000000	      0.00000000	      0.00000000	      0.00000000	      0.00000000	      0.00000000	      0.00000000	      0.00000000	      0.00000000	      0.00000000	      0.00000000	      0.00000000	      0.00000000	      0.00000000	      0.00000000	      0.00000000	      0.00000000	      0.00000000	      0.00000000	      0.00000000	      0.00000000	      0.00000000	      0.00000000	      0.00000000	      0.00000000	      0.00000000	      0.00000000	      0.00000000	      0.00000000	      0.00000000	      0.00000000	      0.00000000	      0.00000000	     63.49719308	     43.88161680	     23.21139474	      0.00000000	      0.00000000	      0.00000000	    116.99866359	      0.00000000	    -25.84154700	      9.40555000	      0.00000000	      0.00000000	     -0.05000000	     -0.50000000	    -25.84154700	      9.40555000	      0.00000000	      0.00000000	     -0.05000000	      0.50000000	    -25.84154700	      9.40555000	      0.00000000	      0.00000000	     -0.10000000	     -0.50000000	    -25.84154700	      9.40555000	      0.00000000	      0.00000000	     -0.10000000	      0.50000000
      0.63236553	      6.03154971	      4.07412053	      6.27154239	      6.99434225	      0.00000000	      1.53429946	     11.20208493	      8.21773151	      8.35713351	     10.29839969	      0.00000000	      0.00000000	      2.76307434	     50.99597937	     -9.56042239	      5.21997485	     -0.02578839	      1.48581788	     -2.76307434	    -50.99597937	      9.56042239	     -1.74637766	      0.02558040	     -0.48301696	     -3.31599387	     20.97615968	     -3.40468921	      0.94473225	     -0.02138609	     -1.00501789	      3.31599387	    -20.97615968	      3.40468921	      0.28075727	      0.00368718	     -0.29758878	      0.81334665	     75.31516337	    -13.05745749	      3.38380009	      0.09135857	      0.75777521	     -0.81334665	    -75.31516337	     13.05745749	      1.92835742	     -0.05398377	     -0.21130476	     -4.99531750	     93.69381196	      1.95176984	      1.08580956	      0.07533966	     -0.74613463	      4.99531750	    -93.69381196	     -1.95176984	     -1.42757297	     -0.05992358	     -0.86860919	      0.00000000	      0.00000000	      0.00000000	      0.00000000	      0.00000000	      0.00000000	      0.00000000	      0.00000000	      0.00000000	      0.00000000	      0.00000000	      0.00000000	      0.00000000	      0.00000000	      0.00000000	      0.00000000	      0.00000000	      0.00000000	      0.00000000	      0.00000000	      0.00000000	      0.00000000	      0.00000000	      0.00000000	      0.00000000	      0.00000000	      0.00000000	      0.00000000	      0.00000000	      0.00000000	      0.00000000	      0.00000000	      0.00000000	      0.00000000	      0.00000000	      0.00000000	      0.00000000	      0.00000000	      0.00000000	      0.00000000	      0.00000000	      0.00000000	      0.00000000	      0.00000000	      0.00000000	      0.00000000	      0.00000000	      0.00000000	      0.00000000	      0.00000000	     63.53978357	     43.60470981	     23.21343779	      0.00000000	      0.00000000	      0.00000000	    116.99866359	      0.00000000	    -25.84154700	      9.40555000	      0.00000000	      0.00000000	     -0.05000000	     -0.50000000	    -25.84154700	      9.40555000	      0.00000000	      0.00000000	     -0.05000000	      0.50000000	    -25.84154700	      9.40555000	      0.00000000	      0.00000000	     -0.10000000	     -0.50000000	    -25.84154700	      9.40555000	      0.00000000	      0.00000000	     -0.10000000	      0.50000000
      0.63322765	      6.03035855	      4.07329382	      6.27146705	      6.99082285	      0.00000000	      1.53321590	     11.20126535	      8.21401626	      8.35521887	     10.29837723	      0.00000000	      0.00000000	      2.76307434	     50.99597937	     -9.56042239	      5.21997485	     -0.02578839	      1.48581788	     -2.76307434	    -50.99597937	      9.56042239	     -1.74637766	      0.02558040	     -0.48301696	     -3.31599387	     20.97615968	     -3.40468921	      0.94473225	     -0.02138609	     -1.00501789	      3.31599387	    -20.97615968	      3.40468921	      0.28075727	      0.00368718	     -0.29758878	      0.95053011	     75.31350255	    -13.00615379	      3.36207198	      0.09523734	      0.81589530	     -0.95053011	    -75.31350255	     13.00615379	      1.93049997	     -0.05861566	     -0.21703605	     -4.96487617	     93.64584497	      1.96543851	      1.07928082	      0.07457358	     -0.73376659	      4.96487617	    -93.64584497	     -1.96543851	     -1.42644826	     -0.05933006	     -0.86950721	      0.00000000	      0.00000000	      0.00000000	      0.00000000	      0.00000000	      0.00000000	      0.00000000	      0.00000000	      0.00000000	      0.00000000	      0.00000000	      0.00000000	      0.00000000	      0.00000000	      0.00000000	      0.00000000	      0.00000000	      0.00000000	      0.00000000	      0.00000000	      0.00000000	      0.00000000	      0.00000000	      0.00000000	      0.00000000	      0.00000000	      0.00000000	      0.00000000	      0.00000000	      0.00000000	      0.00000000	      0.00000000	      0.00000000	      0.00000000	      0.00000000	      0.00000000	      0.00000000	      0.00000000	      0.00000000	      0.00000000	      0.00000000	      0.00000000	      0.00000000	      0.00000000	      0.00000000	      0.00000000	      0.00000000	      0.00000000	      0.00000000	      0.00000000	     63.57907092	     43.67149826	     23.29368173	      0.00000000	      0.00000000	      0.00000000	    116.99866359	      0.00000000	    -25.84154700	      9.40555000	      0.00000000	      0.00000000	     -0.05000000	     -0.50000000	    -25.84154700	      9.40555000	      0.00000000	      0.00000000	     -0.05000000	      0.50000000	    -25.84154700	      9.40555000	      0.00000000	      0.00000000	     -0.10000000	     -0.50000000	    -25.84154700	      9.40555000	      0.00000000	      0.00000000	     -0.10000000	      0.50000000
